<svg xmlns="http://www.w3.org/2000/svg" width="64" height="64" viewBox="0 0 64 64"><rect x="2" y="2" width="60" height="60" rx="12" fill="#EF4444" fill-opacity="0.12"/><rect x="2" y="2" width="60" height="60" rx="12" fill="none" stroke="#EF4444" stroke-opacity="0.25" stroke-width="2"/><g transform="translate(16,16) scale(1.3333)" fill="none" stroke="#EF4444" stroke-width="2" stroke-linecap="round" stroke-linejoin="round"><path d="M20 13c0 5-3.5 7.5-7.66 8.95a1 1 0 0 1-.67-.01C7.5 20.5 4 18 4 13V6a1 1 0 0 1 1-1c2 0 4.5-1.2 6.24-2.72a1.17 1.17 0 0 1 1.52 0C14.51 3.81 17 5 19 5a1 1 0 0 1 1 1z"></path></g></svg>