<?xml version="1.0" encoding="UTF-8"?>
<svg id="Layer_2" data-name="Layer 2" xmlns="http://www.w3.org/2000/svg" viewBox="0 0 1838.82 410.03">
  <defs>
    <style>
      .cls-1 {
        fill: #46ba7c;
      }

      .cls-2 {
        fill: #fff;
      }

      .cls-3 {
        fill: #eaf8f2;
      }
    </style>
  </defs>
  <g id="Layer_1-2" data-name="Layer 1">
    <g>
      <g>
        <path class="cls-1" d="M660.64,176.15l-.67-.15-215.37.33-.76.21c-14.27,3.89-19.66,15.14-18.67,24.57,1.01,9.67,9.13,20.47,24.55,21.36h205.96s.14,0,.14,0c15.74-.75,23.86-11.65,24.75-21.45.89-9.86-4.93-21.37-19.94-24.87Z"/>
        <path class="cls-1" d="M684.16,382.41c-2.14-9.96-10.69-17.16-21.77-18.34l-.32-.03-215.41.33h-.45s-.44.07-.44.07c-11.92,1.83-20.45,10.99-20.74,22.27-.23,9.21,5.5,19.72,18.85,22.47l.61.12,226.41-1.19,1.37-.81c9.45-5.54,14-15.08,11.89-24.9Z"/>
        <path class="cls-1" d="M852.78,33.1l-.4-.48c-16.67-18.04-39.88-29.8-63.7-32.26l-.31-.03-347.27,1.02h-1.34s-1.21.58-1.21.58c-9.54,4.58-14.71,14.02-13.19,24.04,1.55,10.17,9.63,18.03,20.11,19.57l.43.06,335.67-.04c15.29,1.62,28.1,7.93,37.08,18.28l249.66,335.7c2.71,3.65,8.51,1.73,8.51-2.82v-63.38L852.78,33.1Z"/>
      </g>
      <g>
        <g>
          <path class="cls-3" d="M1110.21,19.86c-1.51-13.36-12.07-19.6-21.87-19.85-11.82-.27-21.43,7.22-23.27,18.31l-.08.48v296.98h0s0,79.29,0,79.29l3.6,4.84c4.11,6.14,11.48,9.8,19.38,9.8.98,0,1.96-.06,2.95-.17,8.47-.98,15.14-5.97,17.83-13.35l.35-.97,1.15-374.67v-.34s-.04-.34-.04-.34Z"/>
          <path class="cls-3" d="M1836.75,175.7c-5.59-39.85-22.28-76.43-48.25-105.81-24.35-27.54-56.13-48.19-91.9-59.69-35.82-11.53-73.74-13.27-109.65-5.06-38.35,8.77-73.4,28.9-101.36,58.2-44.61,46.74-64.56,110.01-54.72,173.59,9.72,62.86,47.3,116.47,103.09,147.08,31.03,17.02,65.08,25.86,99.29,25.86,4.71,0,9.43-.17,14.14-.5,36.52-2.61,72.03-15.18,102.68-36.33,30.57-21.11,54.85-49.75,70.2-82.85,16.35-35.24,22.04-74.82,16.48-114.48ZM1634.12,365.29c-88.36,0-159.98-71.63-159.98-159.98s71.63-159.98,159.98-159.98,159.98,71.63,159.98,159.98-71.63,159.98-159.98,159.98Z"/>
          <path class="cls-3" d="M356.36,24c-.38-11.96-7.39-21.13-17.85-23.34-10.55-2.23-21.1,3.47-26.27,14.18l-.08.18c-22.4,50.66-44.09,102.64-65.06,152.9-21.06,50.47-42.83,102.67-65.31,153.47-.77,1.74-1.57,3.7-2.34,5.6-.25.62-.5,1.24-.75,1.85L41.64,10.83l-.41-.56C35.05,1.97,25.21-1.63,15.56.88,10.48,2.2,6.1,5.93,3.23,11.38-.2,17.9-.96,25.74,1.25,31.85l.13.34c27.44,63.48,55.05,128.15,81.75,190.7,22.53,52.77,45.83,107.34,68.91,160.94.86,2,1.76,4.82,2.63,7.54,1.22,3.83,2.38,7.44,3.77,10.13,3.14,6.07,11.69,8.39,18.64,8.53.25,0,.5,0,.75,0,8.4,0,15.1-2.99,18-8.06l.17-.3L355.89,26.51l.51-1.2-.04-1.31Z"/>
          <path class="cls-3" d="M1303.43,21.3c-.46-6.79-3.5-12.64-8.56-16.48-5.38-4.08-12.67-5.55-19.99-4.02-8.53,1.78-15.89,10.18-16.75,19.13l-.03.29.97,374.17v1.65s.87,1.41.87,1.41c4.63,7.6,12.51,12.02,20.89,12.02,1.53,0,3.07-.15,4.61-.45,9.43-1.84,16.29-9.08,17.9-18.91l.08-.48.03-367.94v-.4Z"/>
        </g>
        <path class="cls-2" d="M823.01,382.86V95.93c0-8.87-3.36-16.69-9.24-21.47-5.47-4.45-12.77-6.01-20.55-4.4-9.65,2.01-16.72,11.3-16.8,22.15v296.17s.05.43.05.43c2.17,14.6,12.78,20.88,22.48,20.88.71,0,1.43-.03,2.13-.1,11.4-1.1,22.58-10.63,21.93-26.73Z"/>
      </g>
    </g>
  </g>
</svg>